<svg xmlns="http://www.w3.org/2000/svg" width="60" height="50" fill="none"><path fill="#ABABB0" d="m4.922 33.916-3.08-17.46c-.705-4.008 1.076-6.513 5.12-7.236l24.92-4.38c4.045-.723 6.55 1.04 7.273 5.03l.91 5.139h3.952c4.1 0 6.29 2.17 6.29 6.234v17.72c0 4.063-2.19 6.234-6.29 6.234H18.708c-4.1 0-6.271-2.152-6.271-6.234v-.037l-.242.037c-4.063.686-6.55-1.04-7.273-5.047m3.99-1.15c.315 1.688 1.316 2.337 2.912 2.06l.613-.112v-13.47c0-4.083 2.17-6.235 6.271-6.235h17.163l-.705-3.99c-.297-1.688-1.336-2.337-2.913-2.059L8.02 13.227c-1.615.279-2.338 1.244-2.042 2.932L8.91 32.766zm7.644-11.096v15.215l3.97-3.488c.668-.576 1.355-.873 2.06-.873.742 0 1.484.279 2.134.891l2.857 2.58 7.18-6.328c.724-.65 1.504-.946 2.357-.946a3.43 3.43 0 0 1 2.394.965l6.68 6.252V21.67c0-1.707-.91-2.524-2.505-2.524H19.06c-1.615 0-2.505.817-2.505 2.524zm9.87 8.387c-2.133 0-3.859-1.763-3.859-3.897 0-2.115 1.726-3.878 3.86-3.878s3.878 1.763 3.878 3.878c0 2.134-1.744 3.897-3.878 3.897z"/></svg>