<svg xmlns="http://www.w3.org/2000/svg" width="60" height="50" fill="none"><g clip-path="url(#a)"><path fill="#ABABB0" d="M8.078 22.535c-3.183 0-5.527-2.422-5.527-6.152 0-5.078 3.926-8.809 8.36-8.809 1.034 0 1.835.567 1.835 1.504 0 .781-.605 1.387-1.387 1.445-2.793.157-4.804 1.836-5.41 4.356.664-.86 1.621-1.27 2.774-1.27 2.382 0 4.16 1.758 4.16 4.356 0 2.715-2.168 4.57-4.805 4.57m12.383 0c-3.164 0-5.508-2.422-5.508-6.152 0-5.078 3.926-8.809 8.36-8.809 1.035 0 1.835.567 1.835 1.504 0 .781-.625 1.387-1.406 1.445-2.773.157-4.785 1.836-5.39 4.356.644-.86 1.62-1.27 2.773-1.27 2.363 0 4.14 1.758 4.14 4.356 0 2.715-2.148 4.57-4.804 4.57m10.195-11.133a1.89 1.89 0 0 1-1.894-1.914c0-1.054.84-1.894 1.894-1.894h10.918a1.9 1.9 0 0 1 1.914 1.894c0 1.075-.86 1.914-1.914 1.914zm0 10.215a1.884 1.884 0 0 1-1.894-1.894c0-1.055.84-1.895 1.894-1.895h10.918a1.9 1.9 0 0 1 1.914 1.895 1.9 1.9 0 0 1-1.914 1.894zM4.406 31.852a1.884 1.884 0 0 1-1.894-1.895c0-1.074.84-1.914 1.894-1.914h37.168c1.055 0 1.914.84 1.914 1.914a1.9 1.9 0 0 1-1.914 1.895zm0 10.234a1.89 1.89 0 0 1-1.894-1.914c0-1.055.84-1.895 1.894-1.895h37.168a1.9 1.9 0 0 1 1.914 1.895c0 1.074-.86 1.914-1.914 1.914z"/></g><defs><clipPath id="a"><path fill="#fff" d="M0 0h60v50H0z"/></clipPath></defs></svg>