<svg xmlns="http://www.w3.org/2000/svg" width="60" height="50" fill="none"><g clip-path="url(#a)"><path fill="#ABABB0" d="M23.768 41.602c-1.466-.409-2.06-1.763-1.633-3.229l9.017-30.894c.446-1.558 1.726-2.208 3.136-1.818 1.429.408 2.115 1.726 1.726 3.099l-9.055 31.023c-.445 1.447-1.763 2.208-3.191 1.819m32.674-17.998c0 .723-.315 1.465-.946 2.022l-11.69 10.558c-1.15 1.02-2.671.983-3.636-.093s-.872-2.616.241-3.6l9.816-8.887-9.816-8.888c-1.113-1.002-1.206-2.524-.241-3.618.965-1.077 2.486-1.114 3.637-.093l11.69 10.576c.63.557.945 1.299.945 2.023m-54.884 0c0-.724.315-1.466.946-2.023l11.708-10.576c1.132-1.02 2.653-.984 3.618.093.965 1.094.872 2.616-.241 3.618l-9.816 8.888 9.816 8.887c1.113.984 1.206 2.524.241 3.6s-2.486 1.113-3.618.093L2.504 25.626c-.63-.557-.946-1.299-.946-2.023z"/></g><defs><clipPath id="a"><path fill="#fff" d="M0 0h60v50H0z"/></clipPath></defs></svg>