<svg xmlns="http://www.w3.org/2000/svg" width="60" height="50" fill="none"><g clip-path="url(#a)"><path fill="#ABABB0" d="M9.637 45.227c-2.54 0-3.555-2.325-2.168-4.16.82-1.114 2.207-3.204 3.027-4.708-6.074-3.066-10-8.828-10-15.254C.496 10.852 10.711 2.59 23.465 2.59s22.969 8.262 22.969 18.515c0 10.586-10.352 18.653-24.239 18.477-4.258 3.027-9.804 5.645-12.558 5.645m2.539-4.512c1.719-.684 5.234-2.93 7.558-4.668.801-.645 1.426-.879 2.285-.879.606.02 1.114.02 1.446.02 10.293 0 18.515-6.31 18.515-14.083 0-7.753-8.222-14.082-18.515-14.082-10.313 0-18.535 6.329-18.535 14.082 0 5.02 3.437 9.434 9.258 12.188 1.269.605 1.523 1.582.917 2.695-.761 1.407-2.207 3.282-3.125 4.434-.214.273-.097.41.196.293"/></g><defs><clipPath id="a"><path fill="#fff" d="M0 0h60v50H0z"/></clipPath></defs></svg>