<svg xmlns="http://www.w3.org/2000/svg" width="124" height="20" fill="none"><path fill="#101010" fill-opacity=".3" fill-rule="evenodd" d="M12.09.38c0 .997-.42 1.983-1.016 2.706-.654.791-1.748 1.377-2.617 1.377a1.4 1.4 0 0 1-.24-.025l-.024-.004a2 2 0 0 1-.039-.352c0-.996.508-1.992 1.065-2.617C9.912.645 11.084.039 12.06 0c.02.107.03.244.03.38M9.524 5.219c.634-.25 1.39-.55 2.234-.55.547 0 2.53.059 3.828 1.924l-.044.029c-.315.205-2.036 1.33-2.036 3.652 0 2.862 2.5 3.887 2.578 3.907-.01.068-.4 1.386-1.318 2.744-.83 1.181-1.7 2.383-3.008 2.383-.638 0-1.047-.18-1.47-.367-.45-.2-.918-.405-1.694-.405-.783 0-1.3.22-1.788.428-.438.186-.852.363-1.415.363-1.211 0-2.051-1.103-3.008-2.451C1.26 15.283.36 12.812.36 10.469c0-3.75 2.442-5.742 4.854-5.742.706 0 1.345.256 1.913.484.453.182.862.346 1.222.346.32 0 .715-.157 1.174-.339zm93.103 2.111a.936.936 0 0 0 .939-.933.94.94 0 0 0-.939-.933.94.94 0 0 0-.946.933c0 .52.425.933.946.933m-.794 8.1h1.581V8.49h-1.581v6.938zm7.453-8.1a.936.936 0 0 0 .939-.933.94.94 0 0 0-.939-.933.94.94 0 0 0-.946.933c0 .52.425.933.946.933m-.794 8.1h1.581V8.49h-1.581v6.938zm6.814-.038c-.228.044-.52.07-.825.07-1.593 0-2.247-.534-2.247-1.873V9.716h-1.079V8.49h1.079v-1.7h1.606v1.7h1.466v1.226h-1.466v3.497c0 .692.273.984.933.984.222 0 .343-.006.533-.025zm4.98.184c-.596 1.739-1.39 2.291-2.926 2.291a6 6 0 0 1-.603-.025v-1.213c.127.013.305.02.47.02.647 0 1.034-.267 1.206-.896l.082-.317-2.482-6.944h1.727l1.619 5.42h.12l1.612-5.42h1.664zm-13.549-.146h-1.581V5.806h1.581v9.623zm-6.233-.038c-.229.044-.521.07-.826.07-1.593 0-2.247-.534-2.247-1.873V9.716h-1.079V8.49h1.08v-1.7h1.605v1.7h1.467v1.226h-1.467v3.497c0 .692.273.984.933.984.222 0 .343-.006.534-.025zm-9.144.266c2.33 0 3.764-1.364 3.764-3.383V6.269h-1.638v5.872c0 1.263-.762 2.1-2.12 2.1-1.365 0-2.133-.837-2.133-2.1V6.269h-1.638v6.005c0 2.019 1.448 3.383 3.765 3.383zm-8.525-2.07c-.222.896-1.15 1.981-3.034 1.981-2.064 0-3.314-1.383-3.314-3.592v-.007c0-2.183 1.263-3.612 3.237-3.612s3.193 1.384 3.193 3.479v.52h-4.85c.02 1.245.693 1.968 1.765 1.968.857 0 1.346-.431 1.498-.749l.02-.044h1.504zm-1.46-2.29c-.108-1.137-.75-1.702-1.632-1.702s-1.542.597-1.663 1.701h3.295zm-7.862 4.132h1.58V5.806h-1.58v9.623zm-1.38-3.46c0 2.197-1.111 3.574-2.85 3.574-.972 0-1.727-.444-2.108-1.2h-.108v1.086h-1.58V5.806h1.58v3.79h.108c.362-.75 1.155-1.22 2.107-1.22 1.759 0 2.85 1.372 2.85 3.58v.013zm-5.085 0c0 1.39.666 2.241 1.74 2.241 1.078 0 1.732-.844 1.732-2.24v-.014c0-1.396-.654-2.247-1.733-2.247-1.073 0-1.74.857-1.74 2.248zm-6.96 3.574c.914 0 1.65-.394 2.03-1.066h.109v.952h1.561v-4.742c0-1.466-1.003-2.33-2.786-2.33-1.65 0-2.768.775-2.92 1.943l-.007.057h1.492l.007-.025c.158-.457.628-.718 1.352-.718.85 0 1.3.381 1.3 1.073v.597l-1.783.108c-1.688.101-2.634.825-2.634 2.063v.012c0 1.263.958 2.076 2.279 2.076m-.718-2.152v-.013c0-.57.413-.895 1.295-.952l1.562-.101v.558c0 .826-.705 1.448-1.657 1.448-.698 0-1.2-.35-1.2-.94m-4.529.984c-.323.743-1.028 1.193-2.03 1.193-1.563 0-2.362-.94-2.362-2.59V8.492h1.58v4.126c0 1.072.4 1.618 1.352 1.618 1.022 0 1.568-.66 1.568-1.7V8.49h1.58v6.938h-1.58v-1.054h-.108zm-7.645 1.054h1.58V5.806h-1.58zm-3.368-.952c-.38.672-1.117 1.066-2.031 1.066-1.32 0-2.279-.813-2.279-2.076v-.012c0-1.238.946-1.962 2.634-2.063l1.784-.108v-.597c0-.692-.45-1.073-1.301-1.073-.724 0-1.194.26-1.352.717l-.007.026h-1.491l.006-.057c.152-1.168 1.27-1.943 2.92-1.943 1.784 0 2.787.864 2.787 2.33v4.742h-1.562v-.952zm-2.748-1.099v.013c0 .59.501.94 1.2.94.951 0 1.656-.622 1.656-1.448v-.558l-1.562.101c-.882.057-1.294.381-1.294.952m-6.193 2.05h1.733l2.457-6.937h-1.663l-1.594 5.395h-.108l-1.606-5.395h-1.688l2.47 6.938zm-7.753 0h-1.581V8.492h1.58v1.06h.108c.33-.743.997-1.194 2-1.194 1.549 0 2.393.934 2.393 2.584v4.488h-1.58v-4.12c0-1.079-.438-1.625-1.397-1.625-.94 0-1.523.66-1.523 1.701zm-5.05 0h1.638V6.27h-1.638z" clip-rule="evenodd"/></svg>