<svg xmlns="http://www.w3.org/2000/svg" width="64" height="20" fill="none"><path fill="#101010" fill-opacity=".35" d="M5.202 16.833H2.94V2.149l2.263.15zm3.705 0H6.644V6.36l2.263.13zM7.775 3.173c.712 0 1.296.597 1.296 1.324S8.487 5.82 7.775 5.82c-.711 0-1.295-.596-1.295-1.323s.584-1.323 1.295-1.323zm6.533 5.293v2.31h-1.697v6.047h-2.263V5.335C10.348 3.584 11.772 2 13.45 2c.566 0 1.022.168 1.132.242l-.091 2.218h-1.04c-.457 0-.84.391-.84.875v3.131zm3.178 2.012h1.697v-1.08c0-.485-.383-.876-.839-.876a.866.866 0 0 0-.858.876zm-2.263-1.08c0-1.752 1.387-3.187 3.121-3.187 1.715 0 3.102 1.435 3.102 3.187v2.236c0 .652-.51 1.155-1.131 1.155h-2.829v1.006c0 .485.384.876.858.876h2.172l.073 1.957-2.044.316c-1.971.336-3.322-1.397-3.322-3.149zm8.158 7.435V2.243h1.46v4.434c.402-.13 1.04-.186 1.478-.186 1.552 0 2.756 1.435 2.756 3.056v7.286h-1.423V9.547c0-.802-.64-1.435-1.424-1.435h-1.387v8.72zm11.035-2.814v-2.516H33.01c-.785 0-1.405.634-1.405 1.435v1.081c0 .801.62 1.453 1.405 1.453s1.405-.652 1.405-1.453zm0-4.714c0-.839-.383-1.51-1.423-1.398h.018c-.584.019-1.332.093-1.953.13-.018-.54-.036-.745-.055-1.155.493-.186 1.205-.373 1.807-.391 1.825-.037 3.03 1.472 3.03 3.093v4.435c0 1.602-1.26 2.925-2.83 2.925-1.568 0-2.864-1.323-2.864-2.925v-.913c0-1.603 1.076-2.814 2.865-2.814.675 0 1.022.075 1.405.186zm5.512-2.815c1.57 0 2.865 1.305 2.865 2.926v.187c-.566.018-1.022.018-1.442.037v-.224c0-.782-.639-1.434-1.423-1.434-.767 0-1.387.652-1.387 1.434v4.659c0 .82.62 1.435 1.387 1.435.766 0 1.405-.597 1.423-1.38a44 44 0 0 0 1.442.094C42.72 15.77 41.443 17 39.928 17c-1.57 0-2.847-1.304-2.847-2.925V9.416c0-1.62 1.277-2.925 2.847-2.925zm8.617 10.343-2.774-4.938c-.274-.485-.274-.54.055-1.118L48.27 6.64h1.66l-2.755 4.77 2.974 5.423zM45.405 2.28v14.553h-1.46V2.28zM51.918 11h2.81V9.435c0-.801-.639-1.453-1.405-1.453-.785 0-1.405.652-1.405 1.453zm-1.46-1.565c0-1.621 1.278-2.944 2.865-2.944 1.57 0 2.847 1.323 2.847 2.944v2.292a.73.73 0 0 1-.73.745h-3.522v1.584c0 .801.62 1.454 1.405 1.454h1.843c.018.484.037.82.073 1.155l-1.752.28c-1.788.316-3.029-1.268-3.029-2.889zm8.452 7.398h-1.46V9.565c0-1.62 1.241-3.13 3.066-3.093.62.019 1.004.168 1.424.373-.019.447-.037.82-.055 1.155l-1.588-.037c-.766 0-1.387.838-1.387 1.602z"/></svg>