<svg xmlns="http://www.w3.org/2000/svg" width="92" height="20" fill="none"><path fill="#101010" fill-opacity=".3" fill-rule="evenodd" d="M6.87 17.367c-.563.406-1.055.508-1.461.195-.398-.296-.477-.796-.258-1.445l1.586-4.71-4.047-2.9c-.554-.398-.804-.85-.64-1.327.164-.47.617-.703 1.297-.696l4.968.04L9.823 1.78c.211-.664.563-1.015 1.063-1.015s.843.351 1.054 1.015l1.516 4.742 4.953-.039c.695-.007 1.14.227 1.305.696.156.476-.078.93-.64 1.328l-4.048 2.898 1.586 4.711c.219.649.14 1.149-.258 1.445-.406.313-.898.211-1.46-.195l-4.008-2.945-4.016 2.945zm51.94-7.89V5.276l-1.403.95v-1.11l1.475-.993h1.09v5.354zm7.135 0V4.123h1.162v2.29l2.04-2.29h1.375l-2.125 2.352 2.26 3.002h-1.425l-1.658-2.239-.467.52v1.72h-1.162zm4.16-1.675V6.795h1.634V5.248h1.043v1.547h1.634v1.007h-1.634v1.546H71.74V7.802h-1.633zm-12.512 8.076v-5.354h2.275c.595 0 1.083.159 1.424.456.343.299.526.728.526 1.244v.007c0 .682-.358 1.258-.97 1.52l1.201 2.127h-1.33l-1.056-1.94h-.907v1.94zm4.498 0 1.984-5.354h1.224l1.984 5.354H66.06l-.452-1.332H63.76l-.448 1.332zm6.364 0v-4.38h-1.656v-.974h4.478v.975h-1.66v4.38h-1.162zm3.378 0v-5.354h1.162v5.354zm2.038 0v-5.354h.986l2.554 3.429v-3.43h1.125v5.355h-.982L75 12.45v3.43h-1.129zm10.4-2.9v.743c0 .69-.239 1.264-.67 1.665s-1.046.62-1.784.62c-.802 0-1.463-.268-1.922-.759-.458-.49-.707-1.193-.707-2.044v-.008c0-.843.252-1.544.71-2.035.458-.493 1.114-.765 1.904-.765 1.28 0 2.225.707 2.419 1.772l.001.007.015.146h-1.14l-.032-.106c-.16-.514-.608-.822-1.263-.822-.441 0-.795.17-1.04.474-.248.306-.393.756-.393 1.322v.007c0 .576.147 1.03.4 1.338.25.306.611.477 1.063.477.39 0 .71-.116.933-.311a1.07 1.07 0 0 0 .358-.812v-.006h-1.286v-.903zm2.776.758-.577-.114q-.839-.166-1.252-.562c-.279-.269-.407-.611-.407-1.018v-.004c0-.494.223-.908.599-1.196.374-.287.894-.447 1.493-.447 1.227 0 2.03.649 2.103 1.546l.012.154h-1.114l-.022-.125c-.055-.333-.393-.603-.982-.6-.285 0-.52.064-.68.172a.51.51 0 0 0-.243.435v.004c0 .152.055.271.182.371.134.106.351.193.682.26l.578.118c.574.115.996.286 1.276.539.285.257.412.59.412 1.002v.003c0 .532-.216.97-.605 1.272-.386.3-.935.46-1.595.46-.64 0-1.173-.15-1.557-.424a1.52 1.52 0 0 1-.654-1.147l-.012-.157h1.13l.014.125c.018.178.126.332.316.446.192.114.464.182.793.182.31 0 .565-.073.739-.191.172-.117.265-.276.265-.459v-.003a.44.44 0 0 0-.188-.376c-.138-.107-.364-.195-.706-.266M64.676 8.838c-.374.494-.917.768-1.587.768s-1.212-.274-1.584-.768c-.369-.49-.564-1.19-.564-2.036v-.007c0-.847.195-1.545.564-2.035.372-.493.914-.766 1.584-.766s1.213.273 1.587.766c.37.49.568 1.188.568 2.035v.007c0 .846-.197 1.546-.568 2.036m-2.296-.647c.17.311.41.468.709.468q.452 0 .712-.469c.174-.316.273-.786.273-1.388v-.007c0-.603-.099-1.071-.273-1.385-.171-.31-.412-.466-.712-.466s-.54.156-.709.465c-.172.315-.27.783-.27 1.386v.007c0 .602.098 1.073.27 1.389m-3.625 3.28v1.56h1.012c.287 0 .5-.076.642-.205.14-.128.22-.319.22-.574v-.007c0-.245-.083-.435-.228-.565s-.365-.21-.653-.21h-.992zm5.932.33-.616 1.834h1.232zm-29.528 3.567h-2.25v-2.07h-5.523v-1.852c1.43-2.54 2.96-5.04 4.46-7.352h3.313v7.313h1.469v1.89h-1.469v2.07zm-5.648-4.024v.125h3.445V5.883h-.125a97 97 0 0 0-3.32 5.461m11.643 2.86c0 .773-.57 1.359-1.376 1.359-.796 0-1.374-.586-1.374-1.36 0-.773.578-1.351 1.374-1.351.805 0 1.376.578 1.376 1.351zm6.072 1.453c2.531 0 4.281-1.617 4.281-3.992v-.016c0-2.149-1.515-3.695-3.617-3.695-1.078 0-1.953.468-2.406 1.226h-.14l.28-3.21h5.211V4.093h-7.047l-.523 6.672h2.023c.126-.242.313-.453.524-.625.375-.32.86-.484 1.43-.484 1.195 0 2.047.836 2.047 2.039v.015c0 1.211-.844 2.063-2.055 2.063-1.063 0-1.836-.664-2-1.492l-.016-.055h-2.14l.007.11c.133 1.882 1.727 3.32 4.141 3.32z" clip-rule="evenodd"/></svg>