<svg xmlns="http://www.w3.org/2000/svg" width="62" height="20" fill="none"><path fill="#101010" fill-opacity=".3" d="M32.337 17.27h-5.349v-4.642c0-.628-.265-1.158-.628-1.61l-2.051-2.05c-.442-.354-.982-.629-1.61-.629h-1.07v8.922H16.28V3h7.764c1.158 0 2.316.442 3.12 1.335l3.838 3.837c.893.805 1.335 1.963 1.335 3.121v5.978zM55.54 3v4.642c0 .628-.265 1.158-.628 1.61l-2.051 2.051c-.442.442-.982.628-1.61.628h-2.228c.717-.804 1.158-1.874 1.158-2.944V3.01h-5.349v4.642c0 .628-.265 1.158-.628 1.61l-2.051 2.051c-.442.442-.982.628-1.61.628h-1.07V3.02h-5.349V17.3h7.764c1.158 0 2.316-.442 3.121-1.335l2.503-2.502V17.3h5.084c1.158 0 2.316-.442 3.12-1.335l3.838-3.837c.894-.805 1.335-1.963 1.335-3.121V3.029H55.54zM14.494 3H2v5.349h3.573v8.922h5.349V8.349h3.572z"/></svg>