<svg xmlns="http://www.w3.org/2000/svg" width="86" height="20" fill="none"><path fill="#101010" fill-opacity=".3" fill-rule="evenodd" d="M46.94 3.002 48.954 3c1.612 3.907 3.209 7.82 4.818 11.73.363-.832.69-1.681 1.04-2.52l3.763-9.211c.67.004 1.34 0 2.011.002V16.77h-1.294c-.004-4.083.008-8.167-.006-12.25-.387.888-.73 1.796-1.1 2.691-1.288 3.187-2.58 6.37-3.864 9.559l-1.104.001c-1.662-4.084-3.304-8.176-4.966-12.26v12.26H46.94V3zM66.245 6.62c1.125-.356 2.37-.355 3.47.1.799.325 1.51.925 1.917 1.722a.5.5 0 0 0 .085.104c.02-.655.003-1.312.009-1.968h1.244v10.19q-.623.002-1.244 0c-.004-.646.005-1.294-.005-1.941-.127.092-.178.254-.264.382-.513.801-1.333 1.354-2.216 1.604-1.684.499-3.55-.048-4.857-1.23-.221-.176-.412-.387-.603-.596-.325-.327-.522-.762-.688-1.194-.333-.903-.477-1.894-.354-2.857.248-1.983 1.694-3.714 3.506-4.316m1.292 1.07a3.8 3.8 0 0 0-1.99.798 4.05 4.05 0 0 0-1.429 2.223 4.02 4.02 0 0 0 .281 2.746 4.03 4.03 0 0 0 1.88 1.857c.886.426 1.932.51 2.856.165.9-.33 1.668-1.023 2.126-1.896a4 4 0 0 0 .426-2.395c-.11-.962-.558-1.881-1.253-2.524a3.7 3.7 0 0 0-2.897-.975zm10.003-.627a5.2 5.2 0 0 1 3.228-.66 5.2 5.2 0 0 1 2.486 1.006 5 5 0 0 1 1.685 2.254l-1.408-.001c-.069.016-.093-.065-.126-.107a3.92 3.92 0 0 0-2.353-1.767c-.96-.248-2-.092-2.87.394a3.9 3.9 0 0 0-1.633 1.759c-.501 1.071-.485 2.376-.002 3.451a3.9 3.9 0 0 0 1.795 1.899c.948.482 2.075.519 3.072.187.855-.28 1.544-.935 2.062-1.682q.72-.004 1.443 0c-.338.757-.82 1.45-1.437 1.983a4.94 4.94 0 0 1-2.493 1.162 5.5 5.5 0 0 1-2.962-.387 5.2 5.2 0 0 1-2.129-1.696c-1.243-1.664-1.364-4.14-.271-5.918a5.3 5.3 0 0 1 1.913-1.877" clip-rule="evenodd"/><path fill="#101010" fill-opacity=".4" fill-rule="evenodd" d="M5.558 3.086a4.27 4.27 0 0 1 2.556.264c1.176.511 2.107 1.566 2.521 2.808.348 1.02.326 2.154-.003 3.176-.217.67-.574 1.281-.947 1.87-1.191 1.853-2.399 3.694-3.585 5.549-.506.014-1.013 0-1.519.007 1.03-1.586 2.08-3.158 3.1-4.749-.672.422-1.497.496-2.26.357-.888-.168-1.692-.69-2.28-1.389-.816-.966-1.273-2.262-1.192-3.546A5.06 5.06 0 0 1 3.145 4.51c.626-.728 1.482-1.25 2.413-1.424m.398 1.238c-.988.154-1.869.834-2.333 1.74a3.5 3.5 0 0 0-.352 2.099 3.6 3.6 0 0 0 1.317 2.296c.525.422 1.19.67 1.859.638a2.85 2.85 0 0 0 1.878-.612c.62-.482 1.042-1.212 1.194-1.994a3.83 3.83 0 0 0-.51-2.73c-.387-.62-.978-1.111-1.664-1.331a3.06 3.06 0 0 0-1.389-.106M25.802 3.03c1.513-.14 3.063.27 4.344 1.11 1.362.887 2.427 2.27 2.893 3.867.529 1.778.295 3.77-.599 5.382a7 7 0 0 1-3.488 3.11 6.8 6.8 0 0 1-4.5.22 7.1 7.1 0 0 1-3.705-2.645 6.9 6.9 0 0 1-1.172-2.68 7.13 7.13 0 0 1 1.1-5.362c1.164-1.72 3.098-2.855 5.127-3.002m-.094 1.301c-1.676.188-3.24 1.206-4.124 2.686-.956 1.563-1.124 3.626-.354 5.305a5.8 5.8 0 0 0 1.794 2.243c1.104.837 2.506 1.265 3.873 1.125 1.696-.136 3.298-1.13 4.22-2.601.937-1.467 1.171-3.399.566-5.046a5.7 5.7 0 0 0-1.58-2.318c-1.19-1.072-2.826-1.599-4.395-1.394m-13.52-1.106h7.316V4.44h-2.993l-.001 12.32h-1.308V4.438H12.19V3.224zm24.734.001h5.937V4.44h-4.877c-.218 1.252-.45 2.501-.654 3.755.71-.416 1.523-.673 2.346-.637.934.014 1.854.38 2.574.992 1.04.872 1.67 2.234 1.69 3.614.035 1.424-.564 2.86-1.622 3.782a4.2 4.2 0 0 1-2.26 1.024 4.37 4.37 0 0 1-2.692-.542c-1.36-.774-2.239-2.314-2.332-3.902h1.291c.06.786.36 1.559.878 2.142.47.54 1.12.915 1.818 1.014a3.02 3.02 0 0 0 2.257-.563c.655-.486 1.112-1.234 1.282-2.044.277-1.274-.16-2.696-1.148-3.526-.668-.571-1.583-.828-2.437-.664-.87.153-1.636.693-2.198 1.38a99 99 0 0 1-1.038-.38c.399-2.22.797-4.438 1.185-6.659M25.906 5.502c-.015-.265.222-.508.479-.493.253-.011.483.23.472.49q0 2.369.002 4.736a.5.5 0 0 1-.426.419c-1.061-.024-2.125 0-3.187-.013-.308.005-.556-.366-.429-.658a.5.5 0 0 1 .479-.331q1.305.001 2.609-.001c.002-1.383-.001-2.766.001-4.149" clip-rule="evenodd"/></svg>